# xmcd
#
# Track frame offsets: 
#        165
#        16017
#        39365
#        56830
#        76626
#        94282
#        117511
#        142214
#        165654
#        181143
#
# Disc length: 2736 seconds
#
# Revision: 0
# Processed by: cddbd v1.5.2PL0 Copyright (c) Steve Scherf et al.
# Submitted via: ExactAudioCopy v0.99pb4
#
DISCID=7b0aae0a
DTITLE=Cryin' Shame - Unfinished Business
DYEAR=2000
DGENRE=Blues
TTITLE0=Hard To Have The Blues
TTITLE1=Can't Catch My Breath
TTITLE2=Just Good Friends
TTITLE3=Too Much Rhythm
TTITLE4=All Day Sucker
TTITLE5=Empty Matchbox
TTITLE6=As Good As Gold
TTITLE7=Ain't Gonna Play Anymore
TTITLE8=Choices I have Chosen To Choose
TTITLE9=No Name Joe
EXTD=
EXTT0=
EXTT1=
EXTT2=
EXTT3=
EXTT4=
EXTT5=
EXTT6=
EXTT7=
EXTT8=
EXTT9=
PLAYORDER=
